<svg width="1200" height="675" viewBox="0 0 1200 675" fill="none" xmlns="http://www.w3.org/2000/svg">
  <rect width="1200" height="675" rx="36" fill="#E7EEF9"/>
  <rect x="74" y="82" width="1052" height="511" rx="28" fill="#F9FBFF"/>
  <rect x="124" y="140" width="448" height="278" rx="24" fill="#C7DAF6"/>
  <rect x="612" y="140" width="120" height="120" rx="24" fill="#4F46E5" fill-opacity="0.12"/>
  <rect x="756" y="140" width="290" height="32" rx="16" fill="#4F46E5" fill-opacity="0.16"/>
  <rect x="756" y="192" width="230" height="24" rx="12" fill="#94A3B8" fill-opacity="0.36"/>
  <rect x="612" y="292" width="434" height="20" rx="10" fill="#CBD5E1"/>
  <rect x="612" y="332" width="380" height="20" rx="10" fill="#CBD5E1"/>
  <rect x="612" y="372" width="406" height="20" rx="10" fill="#CBD5E1"/>
  <rect x="124" y="458" width="260" height="28" rx="14" fill="#4F46E5"/>
  <rect x="124" y="506" width="370" height="18" rx="9" fill="#94A3B8" fill-opacity="0.4"/>
  <rect x="612" y="454" width="190" height="92" rx="22" fill="#0F172A"/>
  <rect x="822" y="454" width="224" height="92" rx="22" fill="#2563EB" fill-opacity="0.18"/>
  <circle cx="242" cy="279" r="66" fill="#4F46E5" fill-opacity="0.14"/>
  <path d="M206 298C220.667 260.667 243.333 242 274 242C304.667 242 328 260.667 344 298" stroke="#1E293B" stroke-width="18" stroke-linecap="round"/>
  <rect x="206" y="218" width="84" height="112" rx="40" fill="#1E293B" fill-opacity="0.18"/>
</svg>